<svg width="12" height="14" viewBox="0 0 12 14" fill="none" xmlns="http://www.w3.org/2000/svg">
<path d="M11.7071 1.7072C12.0976 1.31667 12.0976 0.683509 11.7071 0.292985C11.3166 -0.0975396 10.6834 -0.0975396 10.2929 0.292985L4.29289 6.29298C3.91432 6.67156 3.90107 7.28115 4.26285 7.67581L9.76285 13.6758C10.136 14.0829 10.7686 14.1104 11.1757 13.7372C11.5828 13.364 11.6103 12.7315 11.2372 12.3244L6.38414 7.03016L11.7071 1.7072Z" fill="#EAEAEA"/>
<path d="M7.70711 1.7072C8.09763 1.31667 8.09763 0.683509 7.70711 0.292985C7.31658 -0.0975396 6.68342 -0.0975396 6.29289 0.292985L0.292895 6.29298C-0.0856843 6.67156 -0.0989299 7.28115 0.262847 7.67581L5.76285 13.6758C6.13604 14.0829 6.76861 14.1104 7.17573 13.7372C7.58284 13.364 7.61035 12.7315 7.23715 12.3244L2.38414 7.03016L7.70711 1.7072Z" fill="#EAEAEA"/>
</svg>
