<svg width="12" height="14" viewBox="0 0 12 14" fill="none" xmlns="http://www.w3.org/2000/svg">
<path d="M0.292893 1.7072C-0.0976314 1.31667 -0.0976314 0.683509 0.292893 0.292985C0.683417 -0.0975396 1.31658 -0.0975396 1.70711 0.292985L7.70711 6.29298C8.08568 6.67156 8.09893 7.28115 7.73715 7.67581L2.23715 13.6758C1.86396 14.0829 1.23139 14.1104 0.824275 13.7372C0.417156 13.364 0.389653 12.7315 0.762845 12.3244L5.61586 7.03016L0.292893 1.7072Z" fill="black"/>
<path d="M4.29289 1.7072C3.90237 1.31667 3.90237 0.683509 4.29289 0.292985C4.68342 -0.0975396 5.31658 -0.0975396 5.70711 0.292985L11.7071 6.29298C12.0857 6.67156 12.0989 7.28115 11.7372 7.67581L6.23715 13.6758C5.86396 14.0829 5.23139 14.1104 4.82427 13.7372C4.41716 13.364 4.38965 12.7315 4.76285 12.3244L9.61586 7.03016L4.29289 1.7072Z" fill="black"/>
</svg>
