<svg width="26" height="34" viewBox="0 0 26 34" fill="none" xmlns="http://www.w3.org/2000/svg">
<path opacity="0.3" d="M3.01786 0.749969H16.165C16.5197 0.749969 16.8629 0.875654 17.1337 1.10471L25.4687 8.15475C25.8057 8.43975 26 8.85868 26 9.30001V30.1354C26 33.045 25.9668 33.25 22.9821 33.25H3.01786C0.0332279 33.25 0 33.045 0 30.1354V3.86455C0 0.954922 0.0332279 0.749969 3.01786 0.749969Z" fill="white"/>
<path fill-rule="evenodd" clip-rule="evenodd" d="M11.3253 19.4136L8.08967 19.4136C7.19619 19.4136 6.47187 18.6893 6.47187 17.7958C6.47187 16.9023 7.19619 16.178 8.08967 16.178L11.3253 16.178L11.3253 12.9424C11.3253 12.0489 12.0496 11.3246 12.9431 11.3246C13.8366 11.3246 14.5609 12.0489 14.5609 12.9424L14.5609 16.178H17.7965C18.6899 16.178 19.4143 16.9023 19.4143 17.7958C19.4143 18.6893 18.6899 19.4136 17.7965 19.4136H14.5609L14.5609 22.6492C14.5609 23.5427 13.8366 24.267 12.9431 24.267C12.0496 24.267 11.3253 23.5427 11.3253 22.6492L11.3253 19.4136Z" fill="white"/>
</svg>
